<svg xmlns="http://www.w3.org/2000/svg" x="0px" y="0px"
width="48" height="48"
viewBox="0 0 172 172"
style=" fill:#000000;"><defs><linearGradient x1="37.24875" y1="37.24875" x2="135.97317" y2="135.97317" gradientUnits="userSpaceOnUse" id="color-1_yXOHowNYbgM5_gr1"><stop offset="0" stop-color="#00c6ff"></stop><stop offset="1" stop-color="#0072ff"></stop></linearGradient></defs><g fill="none" fill-rule="nonzero" stroke="none" stroke-width="1" stroke-linecap="butt" stroke-linejoin="miter" stroke-miterlimit="10" stroke-dasharray="" stroke-dashoffset="0" font-family="none" font-weight="none" font-size="none" text-anchor="none" style="mix-blend-mode: normal"><path d="M0,172v-172h172v172z" fill="none"></path><g><path d="M94.35275,16.51558l8.9225,5.00592l10.23042,0.12542c5.94833,0.07525 11.43083,3.23933 14.4695,8.35275l5.2245,8.79708l8.79708,5.2245c5.117,3.03867 8.28108,8.52117 8.35275,14.4695l0.12542,10.23042l5.00592,8.9225c2.90967,5.18867 2.90967,11.52042 0,16.70908l-5.00592,8.9225l-0.12542,10.23042c-0.07525,5.94833 -3.23933,11.43083 -8.35275,14.4695l-8.79708,5.2245l-5.2245,8.79708c-3.03867,5.117 -8.52117,8.28108 -14.4695,8.35275l-10.23042,0.12542l-8.9225,5.00592c-5.18867,2.90967 -11.52042,2.90967 -16.70908,0l-8.9225,-5.00592l-10.23042,-0.12542c-5.94833,-0.07525 -11.43083,-3.23933 -14.4695,-8.35275l-5.2245,-8.79708l-8.79708,-5.2245c-5.117,-3.03867 -8.28108,-8.52117 -8.35275,-14.4695l-0.12542,-10.23042l-5.00592,-8.9225c-2.90967,-5.18867 -2.90967,-11.52042 0,-16.70908l5.00592,-8.9225l0.12542,-10.23042c0.07525,-5.94833 3.23933,-11.43083 8.35275,-14.4695l8.79708,-5.2245l5.2245,-8.79708c3.03867,-5.117 8.52117,-8.28108 14.4695,-8.35275l10.23042,-0.12542l8.9225,-5.00592c5.19225,-2.90967 11.52042,-2.90967 16.70908,0z" fill="url(#color-1_yXOHowNYbgM5_gr1)"></path><path d="M115.283,57.94967l-36.44967,36.44967l-18.533,-18.533c-2.79858,-2.79858 -7.33508,-2.79858 -10.13367,0l-5.06683,5.06683c-2.79858,2.79858 -2.79858,7.33508 0,10.13367l28.66667,28.66667c2.79858,2.79858 7.33508,2.79858 10.13367,0l46.58333,-46.58333c2.79858,-2.79858 2.79858,-7.33508 0,-10.13367l-5.06683,-5.06683c-2.79858,-2.79858 -7.33508,-2.79858 -10.13367,0z" fill="#000000" opacity="0.05"></path><path d="M75.03142,118.46858l-28.66667,-28.66667c-2.09983,-2.09983 -2.09983,-5.504 0,-7.60025l5.06683,-5.06683c2.09983,-2.09983 5.504,-2.09983 7.60025,0l19.8015,19.79792l37.71458,-37.71458c2.09983,-2.09983 5.504,-2.09983 7.60025,0l5.06683,5.06683c2.09983,2.09983 2.09983,5.504 0,7.60025l-46.58333,46.58333c-2.09625,2.09625 -5.50042,2.09625 -7.60025,0z" fill="#000000" opacity="0.07"></path><path d="M76.29992,117.20008l-28.66667,-28.66667c-1.40108,-1.40108 -1.40108,-3.66933 0,-5.06683l5.06683,-5.06683c1.40108,-1.40108 3.66933,-1.40108 5.06683,0l21.06642,21.06642l38.98308,-38.98308c1.40108,-1.40108 3.66933,-1.40108 5.06683,0l5.06683,5.06683c1.40108,1.40108 1.40108,3.66933 0,5.06683l-46.58333,46.58333c-1.3975,1.40108 -3.66933,1.40108 -5.06683,0z" fill="#ffffff"></path></g></g></svg>